<svg width="100" height="100" viewBox="0 0 100 100" fill="none" xmlns="http://www.w3.org/2000/svg">
<path d="M59.1767 50.1201C59.1767 55.2257 55.056 59.3406 50.0025 59.3406C44.9491 59.3406 40.8284 55.2257 40.8284 50.1201C40.8284 45.0144 44.9491 40.8995 50.0025 40.8995C55.056 40.8995 59.1767 45.0144 59.1767 50.1201ZM22.4977 50.1201C22.4977 55.2257 18.377 59.3406 13.3235 59.3406C8.27002 59.3406 4.14937 55.2257 4.14937 50.1201C4.14937 45.0144 8.27002 40.8995 13.3235 40.8995C18.377 40.8995 22.4977 45.0144 22.4977 50.1201ZM95.8524 50.1201C95.8524 55.2257 91.7318 59.3406 86.6783 59.3406C81.6248 59.3406 77.5042 55.2257 77.5042 50.1201C77.5042 45.0144 81.6248 40.8995 86.6783 40.8995C91.7318 40.8995 95.8524 45.0144 95.8524 50.1201ZM95.8524 13.3161C95.8524 18.4217 91.7318 22.5366 86.6783 22.5366C81.6248 22.5366 77.5041 18.4217 77.5041 13.3161C77.5041 8.21045 81.6248 4.09553 86.6783 4.09553C91.7318 4.09553 95.8524 8.21044 95.8524 13.3161ZM13.0241 77.86H86.9759C91.9465 77.86 96 81.9075 96 86.93C96 91.9525 91.9465 96 86.9759 96H13.0241C8.05349 96 4 91.9525 4 86.93C4 81.9075 8.05349 77.86 13.0241 77.86ZM13.4052 4L49.879 4C54.9998 4 59.1751 8.16969 59.1751 13.3429C59.1751 18.5163 54.9996 22.6863 49.879 22.6863L13.4052 22.6863C8.28435 22.6863 4.10911 18.5166 4.10911 13.3434C4.10911 8.16998 8.28454 4 13.4052 4Z" fill="#553E5E" stroke="#FEC5CF" stroke-width="8"/>
</svg>
